<?xml version="1.0" encoding="UTF-8"?>
<svg width="62px" height="62px" viewBox="0 0 62 62" version="1.1" xmlns="http://www.w3.org/2000/svg" xmlns:xlink="http://www.w3.org/1999/xlink">
    <!-- Generator: Sketch 58 (84663) - https://sketch.com -->
    <title>Group</title>
    <desc>Created with Sketch.</desc>
    <g id="PC" stroke="none" stroke-width="1" fill="none" fill-rule="evenodd">
        <g id="Artboard" transform="translate(-51.000000, -46.000000)">
            <g id="Group" transform="translate(50.000000, 45.000000)">
                <rect id="Rectangle" x="0" y="0" width="64" height="64"></rect>
                <g id="qinSquare" transform="translate(1.000000, 1.000000)" fill="#333333" fill-rule="nonzero">
                    <path d="M24.9453125,32.2109375 L24.9453125,35.359375 L28.4796081,35.359375 L30.03125,33.3478733 L29.2985302,33.3478733 L29.2985302,32.2109375 L24.9453125,32.2109375 Z M17.1953125,31 L21.3125,31 L21.3125,26.640625 L17.1953125,26.640625 L17.1953125,31 Z M29.3046875,26.640625 L24.9453125,26.640625 L24.9453125,31 L29.3046875,31 L29.3046875,26.640625 Z M19.859375,17.4375 L19.859375,21.0703125 L26.640625,21.0703125 L26.640625,17.4375 L19.859375,17.4375 Z M33.6102431,43.4850727 L33.7394097,44.129927 C29.5199653,45.3766452 23.5782986,46.9672857 15.1394097,48.9448388 C14.8810764,49.5037124 14.4074653,49.8046444 13.9769097,49.890625 L12.0824653,45.1616938 C14.0630208,45.0757132 17.3782986,44.8607618 21.4685764,44.5168395 L21.4685764,41.1635974 L13.8907986,41.1635974 L13.5463542,39.9168791 L21.4685764,39.9168791 L21.4685764,36.6066273 L13.0727431,36.6066273 L12.7282986,35.359909 L21.4685764,35.359909 L21.4685764,32.2646086 L17.3352431,32.2646086 L17.3352431,32.9954434 C17.3352431,33.2533851 16.1727431,33.8982394 14.3213542,33.8982394 L13.7185764,33.8982394 L13.7185764,23.8815032 L17.8088542,25.515134 L21.4685764,25.515134 L21.4685764,22.2908627 L20.0907986,22.2908627 L20.0907986,22.935717 C20.0907986,23.236649 18.5407986,23.8815032 17.1630208,23.8815032 L16.5171875,23.8815032 L16.5171875,17.3899704 L12.1685764,17.3899704 L11.8671875,16.1862424 L16.5171875,16.1862424 L16.5171875,10.8984375 L21.6838542,11.4143209 C21.5977431,12.0161849 21.2102431,12.4460877 20.0907986,12.6180489 L20.0907986,16.1862424 L26.7644097,16.1862424 L26.7644097,10.9844181 L31.9741319,11.5003015 C31.8880208,12.1021654 31.5005208,12.5320683 30.3810764,12.7040294 L30.3810764,16.1862424 L31.7157986,16.1862424 L33.5671875,13.5638351 C33.5671875,13.5638351 35.7630208,15.369427 37.0546875,16.7021258 C36.9685764,17.1750189 36.5380208,17.3899704 35.9782986,17.3899704 L30.3810764,17.3899704 L30.3810764,22.7207656 C30.3810764,23.0646878 28.7880208,23.6665518 27.4102431,23.6665518 L26.7644097,23.6665518 L26.7644097,22.2908627 L24.9991319,22.2908627 L24.9991319,25.515134 L29.2185764,25.515134 L30.9838542,23.537581 L34.6435764,26.2459689 C34.3421875,26.5898911 33.9546875,26.8048425 33.0935764,26.9768037 L33.0935764,32.5655406 C33.0935764,32.6945114 32.3185764,33.1244143 31.1130208,33.2963754 C31.8449653,33.9412297 33.1796875,35.0589771 34.1269097,35.9187827 C33.9977431,36.3916759 33.6102431,36.6066273 33.0074653,36.6066273 L24.9991319,36.6066273 L24.9991319,39.9168791 L28.3144097,39.9168791 L30.1657986,37.5524135 C30.1657986,37.5524135 32.3185764,39.2290346 33.5671875,40.4757528 C33.4380208,40.9486459 33.0935764,41.1635974 32.4907986,41.1635974 L24.9991319,41.1635974 L24.9991319,44.2588978 C27.7546875,44.0009561 30.6824653,43.7430144 33.6102431,43.4850727 Z M48.1082547,19.5035396 L52.0703125,22.9090564 C51.7688516,23.2539189 51.2089956,23.5125657 50.261547,23.684997 C49.960086,40.238395 49.3140984,46.8769974 47.2469377,49.1186034 C45.9549624,50.4980532 44.1892627,51.1015625 42.2082337,51.1015625 C42.2082337,49.8083283 42.1221021,48.8168487 41.5622461,48.299555 C41.0023901,47.6529379 39.8396122,47.178752 38.3753734,46.8769974 L38.3753734,46.1872725 C39.7965464,46.3165959 41.863707,46.4890271 42.7250239,46.4890271 C43.4571433,46.4890271 43.8016701,46.3597037 44.2323285,45.9717334 C45.6104356,44.5922836 46.1272257,37.4363875 46.3856208,23.0383799 L41.9929045,23.0383799 C41.6914436,35.2378894 40.1410731,44.5922836 30.106731,51.0153469 L29.546875,50.325622 C36.7388713,43.5576962 37.9016491,34.5912722 38.0739125,23.0383799 L33.4228011,23.0383799 L33.0352085,21.7882534 L38.0739125,21.7882534 C38.1169784,18.4689523 38.0739125,14.9341121 38.0739125,11.140625 L43.7155384,11.7010265 C43.5863408,12.3476436 43.1556824,12.7787217 42.1221021,12.9511529 C42.0790362,16.0118072 42.0790362,18.986246 42.0359704,21.7882534 L45.9118965,21.7882534 L48.1082547,19.5035396 Z" id="bold"></path>
                </g>
            </g>
        </g>
    </g>
</svg>